<?xml version="1.0" encoding="UTF-8" standalone="no"?>
<svg
   version="1.1"
   id="svg2"
   width="46.4868621826172"
   height="55"
   viewBox="0 0 46.4868621826172 55"
   xmlns="http://www.w3.org/2000/svg"
   xmlns:svg="http://www.w3.org/2000/svg">
  <style>
    path { fill: #273845; stroke: none; }
    @media (prefers-color-scheme: dark) {
      path { fill: white; }
    }
  </style>
  <g
     id="g"
     transform="matrix(0.013179050581196,0,0,-0.013179050581196,-24.1655025171984,79.1747278526047)">
      <path
         d="m 2157.79,3301.52 h 461.4 c 2.97,0 5.86,0.28 8.79,0.44 2.93,-0.16 5.82,-0.44 8.79,-0.44 150.08,0 272.17,-122.1 272.17,-272.17 0,-150.07 -122.09,-272.17 -272.17,-272.17 -2.97,0 -5.86,-0.28 -8.79,-0.44 -2.93,0.16 -5.82,0.44 -8.79,0.44 h -461.4 z M 3233.1,3029.35 c 0,328.82 -267.51,596.33 -596.33,596.33 -2.97,0 -5.86,-0.29 -8.79,-0.45 -2.93,0.16 -5.82,0.45 -8.79,0.45 h -623.48 c -89.52,0 -162.08,-72.56 -162.08,-162.08 V 2021.7 c 0,-89.52 72.56,-162.08 162.08,-162.08 89.51,0 162.08,72.56 162.08,162.08 v 411.32 h 415.96 c 3.14,-6.44 6.58,-12.79 10.66,-18.92 l 319.48,-479.62 c 31.22,-46.89 82.64,-72.26 135.04,-72.26 30.87,0 62.09,8.81 89.71,27.21 74.49,49.63 94.66,150.25 45.04,224.74 l -258.48,388.06 c 188.89,100.18 317.9,298.82 317.9,527.12"
         id="path12" />
      <path
         d="m 3086.67,4472.15 h -933.9 v 1376.37 c 0,87.86 -71.24,159.1 -159.1,159.1 -87.87,0 -159.11,-71.24 -159.11,-159.1 V 4315.35 c 0,-0.78 -0.23,-1.51 -0.23,-2.31 0,-87.86 71.24,-159.1 159.1,-159.1 h 1093.24 c 87.87,0 159.11,71.24 159.11,159.1 0,87.87 -71.24,159.11 -159.11,159.11"
         id="path14" />
      <path
         d="m 5157.14,4918.17 h -308.61 v 597.32 c 0,87.97 -71.32,159.29 -159.29,159.29 -87.97,0 -159.29,-71.32 -159.29,-159.29 v -597.32 h -638.84 l 385.68,850.08 c 36.35,80.11 0.87,174.52 -79.24,210.86 -80.12,36.32 -174.52,0.87 -210.87,-79.24 l -487.8,-1075.18 c -0.21,-0.45 -0.34,-0.9 -0.54,-1.34 -1.46,-3.3 -2.73,-6.67 -3.96,-10.08 -0.62,-1.67 -1.29,-3.33 -1.84,-5 -0.96,-2.94 -1.73,-5.95 -2.52,-8.96 -0.6,-2.25 -1.25,-4.49 -1.74,-6.75 -0.5,-2.31 -0.83,-4.66 -1.23,-7 -0.52,-3.03 -1.05,-6.04 -1.39,-9.06 -0.19,-1.81 -0.27,-3.65 -0.41,-5.46 -0.27,-3.57 -0.5,-7.12 -0.53,-10.67 -0.01,-0.5 -0.08,-0.99 -0.08,-1.49 0,-1.34 0.17,-2.64 0.2,-3.97 0.09,-3.4 0.21,-6.79 0.52,-10.17 0.2,-2.3 0.52,-4.57 0.82,-6.84 0.37,-2.75 0.74,-5.48 1.25,-8.2 0.51,-2.74 1.14,-5.43 1.78,-8.11 0.54,-2.22 1.07,-4.42 1.7,-6.61 0.84,-2.92 1.79,-5.78 2.78,-8.62 0.69,-1.97 1.38,-3.93 2.14,-5.86 1.12,-2.82 2.32,-5.57 3.58,-8.3 0.92,-1.98 1.85,-3.95 2.84,-5.9 1.28,-2.48 2.63,-4.91 4.03,-7.31 1.24,-2.15 2.51,-4.26 3.86,-6.35 1.32,-2.06 2.71,-4.06 4.13,-6.06 1.63,-2.29 3.3,-4.55 5.06,-6.76 1.34,-1.69 2.73,-3.32 4.13,-4.95 1.98,-2.3 4.02,-4.56 6.14,-6.75 1.43,-1.48 2.9,-2.9 4.38,-4.32 2.21,-2.1 4.44,-4.16 6.77,-6.14 1.72,-1.46 3.48,-2.84 5.26,-4.23 2.19,-1.71 4.4,-3.41 6.7,-5.01 2.25,-1.58 4.58,-3.05 6.92,-4.51 1.95,-1.22 3.89,-2.45 5.91,-3.59 2.95,-1.67 5.99,-3.18 9.05,-4.67 1.2,-0.58 2.31,-1.26 3.53,-1.82 0.43,-0.2 0.88,-0.32 1.31,-0.51 3.88,-1.72 7.85,-3.23 11.88,-4.64 1.25,-0.44 2.49,-0.96 3.75,-1.37 3.87,-1.25 7.84,-2.25 11.83,-3.21 1.46,-0.35 2.91,-0.81 4.38,-1.12 2.89,-0.6 5.85,-0.96 8.79,-1.4 7.93,-1.21 15.87,-2.02 23.77,-2.02 0.36,0 0.73,0.04 1.09,0.04 h 885.03 v -288.71 c 0,-87.97 71.32,-159.28 159.29,-159.28 87.97,0 159.29,71.31 159.29,159.28 v 288.71 h 308.61 c 87.97,0 159.29,71.31 159.29,159.28 0,87.98 -71.32,159.29 -159.29,159.29"
         id="path16" />
      <path
         d="m 4025.34,3169.95 c 54.4,54.4 117.71,97.09 188.16,126.89 72.85,30.81 150.33,46.44 230.29,46.44 79.96,0 157.45,-15.63 230.3,-46.44 70.45,-29.8 133.75,-72.49 188.16,-126.89 54.4,-54.4 97.09,-117.71 126.88,-188.16 9.42,-22.27 17.42,-44.97 23.99,-68.05 H 3874.47 c 6.57,23.08 14.56,45.78 23.98,68.05 29.8,70.45 72.49,133.76 126.89,188.16 z M 5360.96,2751.5 c 0,123.74 -24.28,243.87 -72.15,357.05 -46.2,109.23 -112.31,207.3 -196.49,291.48 -84.17,84.18 -182.24,150.29 -291.48,196.49 -113.17,47.87 -233.3,72.14 -357.05,72.14 -123.74,0 -243.87,-24.27 -357.05,-72.14 -109.24,-46.2 -207.3,-112.31 -291.48,-196.49 -84.18,-84.18 -150.29,-182.25 -196.49,-291.48 -47.87,-113.18 -72.14,-233.31 -72.14,-357.05 0,-123.75 24.27,-243.88 72.14,-357.05 46.2,-109.24 112.31,-207.31 196.49,-291.49 84.18,-84.17 182.24,-150.28 291.48,-196.48 113.18,-47.88 233.31,-72.15 357.05,-72.15 123.75,0 243.88,24.27 357.05,72.15 109.24,46.2 207.31,112.31 291.49,196.48 63.53,63.54 63.53,166.55 0,230.09 -63.54,63.53 -166.55,63.53 -230.08,0 -54.41,-54.4 -117.71,-97.09 -188.16,-126.89 -72.85,-30.82 -150.34,-46.44 -230.3,-46.44 -79.96,0 -157.44,15.62 -230.29,46.44 -70.45,29.8 -133.76,72.49 -188.16,126.89 -54.4,54.4 -97.09,117.7 -126.89,188.15 -9.29,21.98 -17.2,44.39 -23.72,67.15 h 1324.75 v 0.47 c 89.29,0.66 161.48,73.23 161.48,162.68"
         id="path18" />
  </g>
</svg>
